<?xml version="1.0" encoding="UTF-8"?>
<!--Generator: Apple Native CoreSVG 326-->
<!DOCTYPE svg
PUBLIC "-//W3C//DTD SVG 1.1//EN"
       "http://www.w3.org/Graphics/SVG/1.1/DTD/svg11.dtd">
<svg version="1.1" xmlns="http://www.w3.org/2000/svg" xmlns:xlink="http://www.w3.org/1999/xlink" viewBox="0 0 21.4658 15.647">
 <g>
  <rect height="15.647" opacity="0" width="21.4658" x="0" y="0"/>
  <path d="M16.8838 15.6304L19.125 15.6304C20.4199 15.6304 21.0923 15.0078 21.0923 13.7793L21.0923 1.85938C21.0923 0.630859 20.4199 0 19.125 0L16.8838 0C15.5972 0 14.9331 0.630859 14.9331 1.85938L14.9331 13.7793C14.9331 15.0078 15.5972 15.6304 16.8838 15.6304ZM17.1079 14.377C16.4771 14.377 16.2529 14.1611 16.2529 13.5386L16.2529 2.1001C16.2529 1.47754 16.4771 1.25342 17.1079 1.25342L18.9092 1.25342C19.5483 1.25342 19.7725 1.47754 19.7725 2.1001L19.7725 13.5386C19.7725 14.1611 19.5483 14.377 18.9092 14.377Z" fill="black" fill-opacity="0.85"/>
  <path d="M9.42139 15.6304L11.6626 15.6304C12.9575 15.6304 13.6216 15.0078 13.6216 13.7793L13.6216 4.2832C13.6216 3.05469 12.9575 2.42383 11.6626 2.42383L9.42139 2.42383C8.12646 2.42383 7.4624 3.05469 7.4624 4.2832L7.4624 13.7793C7.4624 15.0078 8.12646 15.6304 9.42139 15.6304ZM9.64551 14.377C9.00635 14.377 8.78223 14.1611 8.78223 13.5386L8.78223 4.52393C8.78223 3.90137 9.00635 3.67725 9.64551 3.67725L11.4468 3.67725C12.0859 3.67725 12.3018 3.90137 12.3018 4.52393L12.3018 13.5386C12.3018 14.1611 12.0859 14.377 11.4468 14.377Z" fill="black" fill-opacity="0.85"/>
  <path d="M1.95898 15.6304L4.19189 15.6304C5.48682 15.6304 6.15918 15.0078 6.15918 13.7793L6.15918 6.69873C6.15918 5.47021 5.48682 4.83936 4.19189 4.83936L1.95898 4.83936C0.664062 4.83936 0 5.47021 0 6.69873L0 13.7793C0 15.0078 0.664062 15.6304 1.95898 15.6304ZM2.1748 14.377C1.54395 14.377 1.31982 14.1611 1.31982 13.5386L1.31982 6.93945C1.31982 6.30859 1.54395 6.09277 2.1748 6.09277L3.97607 6.09277C4.61523 6.09277 4.83936 6.30859 4.83936 6.93945L4.83936 13.5386C4.83936 14.1611 4.61523 14.377 3.97607 14.377Z" fill="black" fill-opacity="0.85"/>
 </g>
</svg>
