<?xml version="1.0" encoding="UTF-8"?>
<!--Generator: Apple Native CoreSVG 326-->
<!DOCTYPE svg
PUBLIC "-//W3C//DTD SVG 1.1//EN"
       "http://www.w3.org/Graphics/SVG/1.1/DTD/svg11.dtd">
<svg version="1.1" xmlns="http://www.w3.org/2000/svg" xmlns:xlink="http://www.w3.org/1999/xlink" viewBox="0 0 17.0266 16.6588">
 <g>
  <rect height="16.6588" opacity="0" width="17.0266" x="0" y="0"/>
  <path d="M16.6531 8.32527C16.6531 12.9105 12.9163 16.6505 8.32527 16.6505C3.74257 16.6505 0 12.9105 0 8.32527C0 3.73427 3.74257 0 8.32527 0C12.9163 0 16.6531 3.73427 16.6531 8.32527ZM11.2027 5.0067L7.38811 11.0536L5.44058 8.65747C5.28453 8.45302 5.14308 8.39375 4.9564 8.39375C4.67293 8.39375 4.44416 8.62626 4.44416 8.91487C4.44416 9.06205 4.506 9.20607 4.6022 9.33606L6.85811 12.0394C7.02246 12.2553 7.1957 12.3432 7.41359 12.3432C7.62892 12.3432 7.81046 12.2412 7.94617 12.0394L12.0483 5.62146C12.1221 5.49346 12.1992 5.34629 12.1992 5.20999C12.1992 4.91763 11.9386 4.71493 11.6609 4.71493C11.4939 4.71493 11.327 4.82201 11.2027 5.0067Z" fill="black" fill-opacity="0.85"/>
 </g>
</svg>
