<?xml version="1.0" encoding="UTF-8"?>
<!--Generator: Apple Native CoreSVG 326-->
<!DOCTYPE svg
PUBLIC "-//W3C//DTD SVG 1.1//EN"
       "http://www.w3.org/Graphics/SVG/1.1/DTD/svg11.dtd">
<svg version="1.1" xmlns="http://www.w3.org/2000/svg" xmlns:xlink="http://www.w3.org/1999/xlink" viewBox="0 0 17.1659 20.6781">
 <g>
  <rect height="20.6781" opacity="0" width="17.1659" x="0" y="0"/>
  <path d="M11.5466 0.696271L16.0961 5.28909C16.6209 5.82532 16.7924 6.34669 16.7924 7.14125L16.7924 14.1851C16.7924 15.801 15.9677 16.6346 14.3658 16.6346L12.7691 16.6346L12.7691 15.607L14.3091 15.607C15.2676 15.607 15.7648 15.0984 15.7648 14.1628L15.7648 6.84175L11.5583 6.84175C10.6912 6.84175 10.2676 6.44697 10.2676 5.55098L10.2676 1.02764L6.50084 1.02764C5.53978 1.02764 5.04837 1.55482 5.04837 2.47181L5.04837 4.02372L4.02331 4.02372L4.02331 2.44948C4.02331 0.833565 4.85056 0 6.44987 0L9.78089 0C10.4864 0 11.0421 0.180376 11.5466 0.696271ZM11.2061 5.42381C11.2061 5.76323 11.3404 5.90318 11.6798 5.90318L15.4599 5.90318L11.2061 1.60878Z" fill="white" fill-opacity="0.85"/>
  <path d="M0 18.2088C0 19.8305 0.816382 20.6583 2.42657 20.6583L10.3425 20.6583C11.9527 20.6583 12.7691 19.8248 12.7691 18.2088L12.7691 11.4789C12.7691 10.5862 12.6497 10.1883 12.0963 9.62343L7.22409 4.6965C6.69101 4.15197 6.25555 4.02372 5.45195 4.02372L2.42657 4.02372C0.829829 4.02372 0 4.85156 0 6.4732ZM1.02764 18.1865L1.02764 6.4898C1.02764 5.57854 1.51904 5.05136 2.47754 5.05136L5.50641 5.05136L5.50641 10.0434C5.50641 10.9941 5.98619 11.4475 6.90227 11.4475L11.7415 11.4475L11.7415 18.1865C11.7415 19.1221 11.2443 19.6307 10.2916 19.6307L2.47181 19.6307C1.51904 19.6307 1.02764 19.1221 1.02764 18.1865ZM7.01366 10.4746C6.63017 10.4746 6.47677 10.3212 6.47677 9.9377L6.47677 5.36364L11.533 10.4746Z" fill="white" fill-opacity="0.85"/>
 </g>
</svg>
